<svg id="Layer_1" data-name="Layer 1" xmlns="http://www.w3.org/2000/svg" viewBox="0 0 185.57 219.2"><defs><style>.cls-1{fill:#e6e6e6;}</style></defs><path class="cls-1" d="M140.8,38.5C133.6,44.9,118.2,55,115.7,55a2.82,2.82,0,0,0-2,.7c-1.6,1.6-18.9,6.8-25.9,7.8-1.8.3-8.7.8-15.3,1.1-7.4.4-12.5,1.1-13.3,1.9-2.2,2.1-3,7.9-3.1,23.8-.2,18.4,1.1,31.8,4.5,45.7,1.4,5.8,2.7,11.2,2.9,12.1.6,3.1,3.6,11.4,5.5,15.6a38.41,38.41,0,0,1,2,4.8c0,2.5,9.7,19.6,18.1,32.1,11.1,16.5,36.8,38.9,54.8,48l5.2,2.6,5.2-2.8c19.3-10,43.9-32,57.1-50.9,7.7-11.1,17.8-32.5,22.7-48.1,5.2-16.7,7-29.1,7.4-51.4.5-21.8-.2-29.2-2.6-31.5-.9-.8-5.5-1.5-12.9-1.8-29.1-1.3-51-10-70.8-27.9-3-2.6-5.8-4.8-6.2-4.8S144.8,34.9,140.8,38.5Zm10.8-1.3c4.3,4.8,16.6,13.7,25,18A118.62,118.62,0,0,0,228,67.9c5.2.1,9.6.3,9.7.5a67,67,0,0,1,.8,7.2c.3,3.8.8,9,1.1,11.6.6,6-1.3,30-3.2,40.3-4.8,26-15.1,51-29.1,70.8-11.9,16.8-35.1,37.2-54,47.7l-4.3,2.4-4.2-2.4C91.7,217,59.1,160.1,58.6,95.5c0-7.7.3-17,.7-20.8l.9-6.7h8.7c17,0,36.5-4.7,52.2-12.6,8-4,20.9-13.3,25.3-18.2,1.1-1.2,2.2-2.2,2.6-2.2S150.5,36,151.6,37.2Z" transform="translate(-56.08 -32)"/><path class="cls-1" d="M148,48.8c0,1.5-15.2,11.8-23.5,16a130.35,130.35,0,0,1-47,12.8l-8.4.7-.7,6.6c-.9,8.2,1,30.6,3.6,44.6,8.5,43.7,34.4,81.5,71.7,104.4l5.3,3.3,6-3.7c16.3-9.9,32.7-25.3,44.4-41.4,15.4-21.5,27.2-54.1,29.1-80.6.3-4.4.8-10.2,1.1-12.9a80.44,80.44,0,0,0-.2-12.8l-.7-7.8h-4.2c-6.7,0-26.2-3.6-35-6.5-13.8-4.5-31.3-14.3-37.4-20.9C149.6,48,148,47.3,148,48.8Zm5.9,7.1a82.75,82.75,0,0,0,10.4,7.2c3.3,1.9,7.1,4.1,8.6,5a26.57,26.57,0,0,0,5.2,2.4c1.3.3,4.7,1.5,7.4,2.5,10,3.7,8.5,3.3,18.5,5.3a127.38,127.38,0,0,0,14.5,2.2c3.8.4,7.2.8,7.6,1.1,1.4.8,0,33.4-1.8,40.4-.3,1.4-.7,3.4-.8,4.5-.3,4.5-2.8,14.5-5.7,23-11.4,33.4-31.9,60.3-60.4,79-3.7,2.5-7.5,4.5-8.4,4.5-2.5,0-20-12.3-28.3-20.1a151.39,151.39,0,0,1-30.5-39.4c-5.2-10-10.8-24.8-11.7-30.5a4,4,0,0,0-.7-1.6c-1.4-2.1-4.8-21.2-5.7-31.9-.9-11.4-.9-27.1.1-28.1.7-.6,3.5-1,12.8-1.9a90.85,90.85,0,0,0,17-3c5.3-1.3,6.7-1.9,15.5-5.6,3.9-1.7,7.5-3.1,8-3.3,2.5-.4,18.4-10.7,20.9-13.5a8.13,8.13,0,0,1,2.4-2.1A40.69,40.69,0,0,1,153.9,55.9Z" transform="translate(-56.08 -32)"/><path class="cls-1" d="M142.9,60.2c-4.9,3.7-5.3,3.9-14.1,8.9C117.4,75.6,94.6,81.9,82.7,82c-6.9.1-8.1,1.7-8.5,11.5-.7,15.8,2.6,37.7,8.3,55,6.9,20.9,17.7,39.7,30.9,53.5,11.6,12.2,25.4,23.2,33.8,27.1,3.2,1.4,4.7.6,21.8-12.7,9.9-7.7,14.1-11.9,23.4-23.9,2.2-2.7,4.3-5.2,4.8-5.3a1.68,1.68,0,0,0,.8-1.4,13.82,13.82,0,0,1,2.2-4.1,18,18,0,0,0,2.3-3.7,12.51,12.51,0,0,1,1.8-3.1c2.8-4.2,9.4-20.1,12.2-29.6,1.5-4.8,2.9-9.5,3.2-10.3a31.33,31.33,0,0,0,1-6c.3-2.5.9-5,1.4-5.6s.7-1.3.4-1.5.1-5.4.8-11.4a132.82,132.82,0,0,0,.9-17.6c-.5-8.6-2.3-10.9-8.8-10.9-5.3,0-22.4-3.4-30.4-6-10.3-3.3-30.3-14.4-32.5-18C151.3,56.1,147.3,57,142.9,60.2Zm11.4,2.7a113.94,113.94,0,0,0,58.2,21.7l8.5.7V95.9c0,53.3-22.9,98.5-63.8,125.9l-8.2,5.5-8.3-5.6c-21.3-14.5-35.5-30.4-46.8-52.5A162.22,162.22,0,0,1,77,96.9V85.3l8.9-.7c10.7-.8,25-4.4,35.8-8.9,7.8-3.3,23-12.5,25.3-15.2.7-.8,1.4-1.5,1.7-1.5S151.4,60.8,154.3,62.9Z" transform="translate(-56.08 -32)"/><path class="cls-1" d="M93.4,105.9c-.2.2-.4,11.8-.4,25.8V157h13c16.4,0,22.1-1.2,27.1-5.7,5.6-5.1,7.2-10.3,6.7-21.6-.3-7.9-.8-10-3.1-13.9a25.61,25.61,0,0,0-6.4-7c-3.5-2.1-5.2-2.3-20.1-2.8C101.2,105.7,93.6,105.7,93.4,105.9Zm29.9,3.5a17.23,17.23,0,0,1,11.5,8.2c2,3.5,2.2,5,2,14.5-.3,9.8-.5,10.8-3.1,14.2-4.8,6.3-7.4,7.1-23.2,7.2h-14L96.4,132c-.1-11.8.2-22,.7-22.6C97.9,108.4,116.6,108.4,123.3,109.4Z" transform="translate(-56.08 -32)"/><path class="cls-1" d="M110.5,114.8a7.56,7.56,0,0,0-3,1.3c-.5.6-1.1,6.9-1.2,14.2-.2,16,.5,17.7,7.2,17.7,5.8,0,8.5-1.3,11.4-5.6,2-2.8,2.3-4.5,2.2-10.5-.2-8-1.9-13.1-5.3-15.3C119.4,115,113.9,114.1,110.5,114.8Zm11.1,5.5c2.6,3,3.8,11.5,2.4,17.2-1.2,5.4-4.1,7.5-10.1,7.5H109V116.7l5.2.5C118.1,117.6,119.9,118.4,121.6,120.3Z" transform="translate(-56.08 -32)"/><path class="cls-1" d="M148.4,105.9c-.2.2-.4,11.8-.4,25.8V157h13.5l-.3-19.7c-.2-10.9-.1-19.5.1-19.3s2.6,9.2,5.3,19.8l4.8,19.3,6-.3,6-.3,4.8-19,4.7-19v19.2L193,157h13V105.5l-10.4.3-10.4.3-3.1,11.7c-1.7,6.4-3.3,13.2-3.7,15s-.8,3.1-1.1,2.9-2.1-7.1-4.1-15.1l-3.8-14.8-10.3-.1C153.5,105.6,148.6,105.7,148.4,105.9Zm18.6,3.7c.5.5,1.3,2.7,1.9,4.9,4.6,18.5,6.5,23.5,9.1,23.5.9,0,4-6.7,4-8.6,0-1.5,3.7-15.3,5-19,.7-1.9,1.5-2.1,5.7-1.9,2.6.2,6,.4,7.6.4l2.7.1v45h-7l-.1-12.8c0-17.4-.3-20.8-1.8-22.6-2.7-3.2-3.8-1-8.7,18.4-1.9,7.4-3.7,14.3-4,15.2-.8,2.8-7.2,2.4-8.3-.5-1.9-5-5.2-19.8-4.6-20.7.3-.5.2-1-.3-1s-1.3-1.5-1.6-3.3a23.24,23.24,0,0,0-2.6-6.5c-1.7-2.8-2.3-3.2-3.5-2.2s-1.5,4.9-1.7,18.4l-.3,17.1-3.2.3c-2.2.2-3.3-.1-3.4-1-.3-3.2-.4-43.4-.2-43.9C152.1,107.9,165.9,108.5,167,109.6Z" transform="translate(-56.08 -32)"/></svg>